<svg xmlns="http://www.w3.org/2000/svg" xmlns:xlink="http://www.w3.org/1999/xlink" width="513.6122" height="473.7238" viewBox="0 0 513.6122 473.7238">
  <defs>
    <linearGradient id="a" data-name="Unbenannter Verlauf 12" x1="257.686" y1="50.6952" x2="257.686" y2="481.1952" gradientUnits="userSpaceOnUse">
      <stop offset="0.2835" stop-color="#f15a24" stop-opacity="0.8"/>
      <stop offset="0.4696" stop-color="#fbb03b"/>
      <stop offset="0.5323" stop-color="#fbb240"/>
      <stop offset="0.6089" stop-color="#fbb84f"/>
      <stop offset="0.6926" stop-color="#fcc268"/>
      <stop offset="0.7815" stop-color="#fdd08a"/>
      <stop offset="0.8744" stop-color="#fee2b7"/>
      <stop offset="0.9694" stop-color="#fff7ec"/>
      <stop offset="1" stop-color="#fff"/>
    </linearGradient>
  </defs>
  <title>Zeichenfläche 2 Kopie 6</title>
  <g>
    <rect x="0.8799" width="513.6122" height="473.7238" fill="#b6f0ff"/>
    <polygon points="359.885 86.774 521.612 272.695 521.612 473.724 400.446 473.724 391.612 168.695 359.885 86.774" fill="#87cddd"/>
    <path d="M401.4455,481.1952s30.7211-424-136.6394-424-162.8606,424-162.8606,424Z" fill="#fff"/>
    <polygon points="380.279 128.029 274.279 50.695 160.092 92.529 130.186 481.195 385.186 481.195 380.279 128.029" fill="url(#a)"/>
    <path d="M408.469,226.053c0-104.5659-67.4248-189.3334-150.5974-189.3334S107.6469,121.4877,107.2742,226.053c-.2358,66.1687-15.6663,247.6708-15.6663,247.6708h56.1041c16.6376-50.5212,59.5956-86.5021,109.9738-86.5021s93.3364,35.9808,109.9741,86.5021h56.104C415.6112,390.6823,408.469,226.053,408.469,226.053ZM286.9468,128.1768c26.6126,4.6566,41.3807,22.2267,41.9207,27.19s-1.9,1.6271-1.9,1.6271c-14.5306-15.4959-42.5557-22.0107-42.5557-22.0107C280.4087,133.9007,271.8116,125.5284,286.9468,128.1768ZM275.85,176.1016c20.7647-3.4428,34.1811,11.9334,35.2176,17.48s-1.2346,2.5059-1.2346,2.5059c-12.9741-13.0621-35.0448-11.295-35.0448-11.295C270.0054,185.0377,264.0409,178.06,275.85,176.1016ZM160.76,106.1763c1.7852-4.1116,19.2425-27.58,47.2776-18.0186,15.1724,5.1745,7.3572,7.8642.7139,6.28,0,0-25.5136-8.4455-46.572,13.4933C162.1792,107.9309,158.9744,110.2878,160.76,106.1763Zm42.6548,75.8967c0,8.1226-5.8289,14.7072-13.0194,14.7072s-13.02-6.5846-13.02-14.7072,5.8291-14.7073,13.02-14.7073S203.4144,173.95,203.4144,182.073Zm50.76,24.3763s10.104,18.5793,69.0769,2.6818c0,0-12.9811,20.0379-48.4091,32.0737l-29.9573,97.38-29.9573-91.38c-35.4278-12.0359-48.4091-29.0737-48.4091-29.0737,64.5849,12.7471,69.0771-11.6818,69.0771-11.6818h0c.89-2.8023,7.0788-3.4544,9.3125-3.4544s8.431.4885,9.2664,3.4544Z"/>
  </g>
</svg>
